<?xml version="1.0" ?><!DOCTYPE svg  PUBLIC '-//W3C//DTD SVG 1.1//EN'  'http://www.w3.org/Graphics/SVG/1.1/DTD/svg11.dtd'><svg height="6.82666in" style="shape-rendering:geometricPrecision; text-rendering:geometricPrecision; image-rendering:optimizeQuality; fill-rule:evenodd; clip-rule:evenodd" viewBox="0 0 6827 6827" width="6.82666in" xml:space="preserve" xmlns="http://www.w3.org/2000/svg" xmlns:xlink="http://www.w3.org/1999/xlink"><defs><style type="text/css">
   <![CDATA[
    .fil4 {fill:none}
    .fil3 {fill:#80CBC4}
    .fil2 {fill:#F6FFFD}
    .fil1 {fill:#FAC23C}
    .fil0 {fill:#013668;fill-rule:nonzero}
   ]]>
  </style></defs><g id="Layer_x0020_1"><g id="_272706400"><path class="fil0" d="M2365 4870c4,-410 276,-673 624,-788 134,-45 280,-67 425,-67 145,0 291,22 425,67 349,116 621,380 623,793 0,44 -35,80 -79,80 -10,0 -20,-2 -29,-5l0 0c-362,-138 -652,-208 -940,-209 -289,-1 -579,68 -940,209 -41,16 -87,-5 -103,-46 -4,-11 -6,-22 -5,-33zm674 -637c-252,84 -455,258 -503,522 326,-117 601,-175 878,-175 277,1 553,59 878,175 -48,-265 -251,-439 -503,-523 -118,-39 -246,-59 -375,-59 -129,0 -257,20 -375,59z"/><path class="fil0" d="M4079 1857c-16,-41 4,-87 45,-103 41,-16 87,4 103,45 0,1 141,369 661,329 44,-3 82,30 86,74 3,44 -30,82 -74,86 -637,49 -820,-428 -821,-430z"/><path class="fil0" d="M2712 1799c16,-41 63,-61 103,-45 41,16 61,63 45,103 -1,1 -184,478 -821,430 -44,-3 -77,-42 -74,-86 3,-44 42,-77 86,-74 519,40 660,-328 661,-329z"/><path class="fil0" d="M3413 853c707,0 1347,287 1810,750 463,463 750,1103 750,1810 0,707 -287,1347 -750,1810 -463,463 -1103,750 -1810,750 -707,0 -1347,-287 -1810,-750 -463,-463 -750,-1103 -750,-1810 0,-707 287,-1347 750,-1810 463,-463 1103,-750 1810,-750zm1697 863c-434,-434 -1034,-703 -1697,-703 -663,0 -1263,269 -1697,703 -434,434 -703,1034 -703,1697 0,663 269,1263 703,1697 434,434 1034,703 1697,703 663,0 1263,-269 1697,-703 434,-434 703,-1034 703,-1697 0,-663 -269,-1263 -703,-1697z"/><path class="fil0" d="M2519 2521c115,0 218,46 293,121 75,75 121,179 121,293 0,115 -46,218 -121,293 -75,75 -179,121 -293,121 -115,0 -218,-46 -293,-121 -75,-75 -121,-179 -121,-293 0,-115 46,-218 121,-293 75,-75 179,-121 293,-121zm180 235c-46,-46 -110,-75 -180,-75 -70,0 -134,29 -180,75 -46,46 -75,110 -75,180 0,70 29,134 75,180 46,46 110,75 180,75 70,0 134,-29 180,-75 46,-46 75,-110 75,-180 0,-70 -29,-134 -75,-180z"/><path class="fil0" d="M4308 2521c115,0 218,46 293,121 75,75 121,179 121,293 0,115 -46,218 -121,293 -75,75 -179,121 -293,121 -115,0 -218,-46 -293,-121 -75,-75 -121,-179 -121,-293 0,-115 46,-218 121,-293 75,-75 179,-121 293,-121zm180 235c-46,-46 -110,-75 -180,-75 -70,0 -134,29 -180,75 -46,46 -75,110 -75,180 0,70 29,134 75,180 46,46 110,75 180,75 70,0 134,-29 180,-75 46,-46 75,-110 75,-180 0,-70 -29,-134 -75,-180z"/></g><path class="fil1" d="M4014 3229c-75,-75 -121,-179 -121,-293 0,-115 46,-218 121,-293 75,-75 179,-121 293,-121 115,0 218,46 293,121 75,75 121,179 121,293 0,115 -46,218 -121,293 -75,75 -179,121 -293,121 -115,0 -218,-46 -293,-121zm1096 -1513c-434,-434 -1034,-703 -1697,-703 -663,0 -1263,269 -1697,703 -434,434 -703,1034 -703,1697 0,663 269,1263 703,1697 434,434 1034,703 1697,703 663,0 1263,-269 1697,-703 434,-434 703,-1034 703,-1697 0,-663 -269,-1263 -703,-1697zm-1032 141c-16,-41 4,-87 45,-103 41,-16 87,4 103,45 0,1 141,369 661,329 44,-3 82,30 86,74 3,44 -30,82 -74,86 -637,49 -820,-428 -821,-430zm-1145 1079c0,115 -46,218 -121,293 -75,75 -179,121 -293,121 -115,0 -218,-46 -293,-121 -75,-75 -121,-179 -121,-293 0,-115 46,-218 121,-293 75,-75 179,-121 293,-121 115,0 218,46 293,121 75,75 121,179 121,293zm-73 -1079c-1,1 -184,478 -821,430 -44,-3 -77,-42 -74,-86 3,-44 42,-77 86,-74 519,40 660,-328 661,-329 16,-41 63,-61 103,-45 41,16 61,63 45,103zm-495 3012c4,-410 276,-673 624,-788 134,-45 280,-67 425,-67 145,0 291,22 425,67 349,116 621,380 623,793 0,44 -35,80 -79,80 -10,0 -20,-2 -29,-5l0 0c-362,-138 -652,-208 -940,-209 -289,-1 -579,68 -940,209 -41,16 -87,-5 -103,-46 -4,-11 -6,-22 -5,-33z"/><path class="fil2" d="M2774 2936c0,-70 -29,-134 -75,-180 -46,-46 -110,-75 -180,-75 -70,0 -134,29 -180,75 -46,46 -75,110 -75,180 0,70 29,134 75,180 46,46 110,75 180,75 70,0 134,-29 180,-75 46,-46 75,-110 75,-180z"/><path class="fil2" d="M4127 2756c-46,46 -75,110 -75,180 0,70 29,134 75,180 46,46 110,75 180,75 70,0 134,-29 180,-75 46,-46 75,-110 75,-180 0,-70 -29,-134 -75,-180 -46,-46 -110,-75 -180,-75 -70,0 -134,29 -180,75z"/><path class="fil3" d="M3789 4233c-118,-39 -246,-59 -375,-59 -129,0 -257,20 -375,59 -252,84 -455,258 -503,522 326,-117 601,-175 878,-175 277,1 553,59 878,175 -48,-265 -251,-439 -503,-523z"/></g><rect class="fil4" height="6827" width="6827"/></svg>