<?xml version="1.0" ?><!DOCTYPE svg  PUBLIC '-//W3C//DTD SVG 1.1//EN'  'http://www.w3.org/Graphics/SVG/1.1/DTD/svg11.dtd'><svg height="6.82666in" style="shape-rendering:geometricPrecision; text-rendering:geometricPrecision; image-rendering:optimizeQuality; fill-rule:evenodd; clip-rule:evenodd" viewBox="0 0 6827 6827" width="6.82666in" xml:space="preserve" xmlns="http://www.w3.org/2000/svg" xmlns:xlink="http://www.w3.org/1999/xlink"><defs><style type="text/css">
   <![CDATA[
    .fil2 {fill:none}
    .fil1 {fill:#80CBC4}
    .fil0 {fill:#013668;fill-rule:nonzero}
   ]]>
  </style></defs><g id="Layer_x0020_1"><g id="_272715880"><path class="fil0" d="M3413 853c707,0 1347,287 1810,750 463,463 750,1103 750,1810 0,707 -287,1347 -750,1810 -463,463 -1103,750 -1810,750 -707,0 -1347,-287 -1810,-750 -463,-463 -750,-1103 -750,-1810 0,-707 287,-1347 750,-1810 463,-463 1103,-750 1810,-750zm1697 863c-434,-434 -1034,-703 -1697,-703 -663,0 -1263,269 -1697,703 -434,434 -703,1034 -703,1697 0,663 269,1263 703,1697 434,434 1034,703 1697,703 663,0 1263,-269 1697,-703 434,-434 703,-1034 703,-1697 0,-663 -269,-1263 -703,-1697z"/><path class="fil0" d="M2093 4161c-21,-39 -7,-87 32,-108 39,-21 87,-7 108,32 102,187 267,345 475,456 203,108 445,171 705,171 261,0 503,-63 705,-171 207,-111 373,-269 475,-456 21,-39 69,-53 108,-32 39,21 53,69 32,108 -116,214 -305,395 -540,520 -225,121 -493,191 -780,191 -287,0 -555,-70 -780,-191 -235,-126 -423,-306 -540,-520z"/><path class="fil0" d="M2768 2756c9,-43 52,-71 95,-62 43,9 71,52 62,95 -20,95 -73,177 -145,236 -71,58 -162,92 -260,92 -98,0 -189,-35 -260,-92 -73,-59 -125,-141 -145,-236 -9,-43 18,-86 62,-95 43,-9 86,18 95,62 12,58 44,109 89,145 44,35 99,56 160,56 61,0 117,-21 160,-56 44,-36 77,-87 89,-145z"/><path class="fil0" d="M4557 2756c9,-43 52,-71 95,-62 43,9 71,52 62,95 -20,95 -73,177 -145,236 -71,58 -162,92 -260,92 -98,0 -189,-35 -260,-92 -73,-59 -125,-141 -145,-236 -9,-43 18,-86 62,-95 43,-9 86,18 95,62 12,58 44,109 89,145 44,35 99,56 160,56 61,0 117,-21 160,-56 44,-36 77,-87 89,-145z"/></g><path class="fil1" d="M4557 2756c9,-43 52,-71 95,-62 43,9 71,52 62,95 -20,95 -73,177 -145,236 -71,58 -162,92 -260,92 -98,0 -189,-35 -260,-92 -73,-59 -125,-141 -145,-236 -9,-43 18,-86 62,-95 43,-9 86,18 95,62 12,58 44,109 89,145 44,35 99,56 160,56 61,0 117,-21 160,-56 44,-36 77,-87 89,-145zm554 -1040c-434,-434 -1034,-703 -1697,-703 -663,0 -1263,269 -1697,703 -434,434 -703,1034 -703,1697 0,663 269,1263 703,1697 434,434 1034,703 1697,703 663,0 1263,-269 1697,-703 434,-434 703,-1034 703,-1697 0,-663 -269,-1263 -703,-1697zm-2342 1040c9,-43 52,-71 95,-62 43,9 71,52 62,95 -20,95 -73,177 -145,236 -71,58 -162,92 -260,92 -98,0 -189,-35 -260,-92 -73,-59 -125,-141 -145,-236 -9,-43 18,-86 62,-95 43,-9 86,18 95,62 12,58 44,109 89,145 44,35 99,56 160,56 61,0 117,-21 160,-56 44,-36 77,-87 89,-145zm-643 1297c39,-21 87,-7 108,32 102,187 267,345 475,456 203,108 445,171 705,171 261,0 503,-63 705,-171 207,-111 373,-269 475,-456 21,-39 69,-53 108,-32 39,21 53,69 32,108 -116,214 -305,395 -540,520 -225,121 -493,191 -780,191 -287,0 -555,-70 -780,-191 -235,-126 -423,-306 -540,-520 -21,-39 -7,-87 32,-108z"/></g><rect class="fil2" height="6827" width="6827"/></svg>